<svg xmlns="http://www.w3.org/2000/svg" viewBox="0 0 374.09 113.54"><defs><style>.cls-1{fill:#1268b1;}.cls-2{fill:#16b14b;}.cls-3{fill:#f27227;}.cls-4{fill:#1169b0;}.cls-5{fill:#fff;}</style></defs><g id="Layer_2" data-name="Layer 2"><g id="Layer_1-2" data-name="Layer 1"><path class="cls-1" d="M245.7,94.49a9.52,9.52,0,0,1-6.47,2.1,13.85,13.85,0,0,1-6.52-1.37l1.41-3.55a10.25,10.25,0,0,0,5,1.27,5.44,5.44,0,0,0,3.51-1A3.46,3.46,0,0,0,243.93,89q0-2.46-4.2-4.31A16.9,16.9,0,0,1,235.21,82,6.51,6.51,0,0,1,233,77a6.86,6.86,0,0,1,2.28-5.39,8.72,8.72,0,0,1,6-2,11.37,11.37,0,0,1,5.9,1.37l-1.3,3.33a9,9,0,0,0-4.46-1.19,4.79,4.79,0,0,0-3.14,1,3.29,3.29,0,0,0-1.2,2.68c0,1.59,1.47,3.07,4.42,4.42a16.9,16.9,0,0,1,4.41,2.67,6.58,6.58,0,0,1,2.17,5A7.11,7.11,0,0,1,245.7,94.49Z"/><path class="cls-1" d="M257.83,104h-4.16l2.93-7.78-7.31-19.5h4.41l4.23,13.24a21.29,21.29,0,0,1,.69,2.93h.07a17.52,17.52,0,0,1,.66-2.93l4.27-13.24H268Z"/><path class="cls-1" d="M280.44,95a8.77,8.77,0,0,1-5.61,1.59,12.81,12.81,0,0,1-6.08-1.37l1.34-3a8.85,8.85,0,0,0,4.63,1.26,4.21,4.21,0,0,0,2.57-.72,2.28,2.28,0,0,0,1-2q0-1.92-3.47-3.19a12.54,12.54,0,0,1-3.73-1.92,5.16,5.16,0,0,1,0-7.85,7.7,7.7,0,0,1,5-1.52,11.17,11.17,0,0,1,5.68,1.38l-1.23,2.75a7.35,7.35,0,0,0-4-1.16,3.6,3.6,0,0,0-2.38.72,2.19,2.19,0,0,0-.84,1.77,2.38,2.38,0,0,0,1,2,9.19,9.19,0,0,0,2.39,1.16,15.52,15.52,0,0,1,3.87,1.91,4.89,4.89,0,0,1,1.85,4A5,5,0,0,1,280.44,95Z"/><path class="cls-1" d="M294.19,96a5.92,5.92,0,0,1-2.46.44q-5.36,0-5.35-5.72V79.66h-2.65v-3h2.65V72.17l3.87-1.2v5.72h3.94v3h-3.94V90.51c0,1.64.87,2.46,2.6,2.46a3.27,3.27,0,0,0,1.34-.25Z"/><path class="cls-1" d="M312.65,86.35l-13,1.81q.62,5.28,6,5.28a11.27,11.27,0,0,0,5.39-1.19l1.16,3a14.79,14.79,0,0,1-6.8,1.37,9.15,9.15,0,0,1-7.09-2.75,10.43,10.43,0,0,1-2.5-7.42,11,11,0,0,1,2.35-7.31,8,8,0,0,1,6.44-2.82,7.74,7.74,0,0,1,5.94,2.32,8.88,8.88,0,0,1,2.13,6.26C312.68,85.52,312.67,86,312.65,86.35Zm-3.77-2.1c0-3.38-1.47-5.06-4.34-5.06a4.43,4.43,0,0,0-3.65,1.66,7.27,7.27,0,0,0-1.45,4.7Z"/><path class="cls-1" d="M337.94,96.19V83a3.41,3.41,0,0,0-1-2.61,4,4,0,0,0-2.72-.9,4.68,4.68,0,0,0-3.58,1.3V96.19h-4V82.62a2.8,2.8,0,0,0-1.09-2.31,4.57,4.57,0,0,0-2.89-.83,8.51,8.51,0,0,0-3.33.57V96.19H315.4V77.67a18.16,18.16,0,0,1,7-1.38c2.79,0,4.87.7,6.22,2.1a9.64,9.64,0,0,1,6.48-2.1,7,7,0,0,1,4.95,1.7,6,6,0,0,1,1.81,4.6v13.6Z"/><path class="cls-2" d="M151.44,17.47a23.8,23.8,0,0,0-22.07,15.82c-.18.48-.79,2.42-.79,2.42L114.64,96.08h32c11,0,20.31-7.94,22.94-18.64h0l13.85-60Z"/><path class="cls-3" d="M98.14,0A23.54,23.54,0,0,0,75.56,17.17c-.21.74-.38,1.49-.52,2.26L53.31,113.54h32A23.54,23.54,0,0,0,108.06,95.7h0L130.16,0Z"/><path class="cls-4" d="M36.79,17.47c-10.37,0-19.24,7.06-22.43,16.84-.07.22-.14.44-.2.66l-.54,2.1L0,96.08H32.79c9.79,0,18.2-6.5,21.47-15.61l1.3-5.62L68.8,17.47Z"/><path class="cls-5" d="M30.81,37.07v0h-.5a10,10,0,0,0-6.41,2.42,10.69,10.69,0,0,0-3.58,5h0L13,76.43h.42A10.06,10.06,0,0,0,19.84,74a10.48,10.48,0,0,0,3.78-5.9l1.61-6.92h14.6a10.27,10.27,0,0,0,6.48-2.46,10.47,10.47,0,0,0,3.77-5.86l.09-.42-22.91,0,1.52-6.58,19.85,0A10,10,0,0,0,55,43.39a10.74,10.74,0,0,0,3.74-5.87l.1-.42Z"/><path class="cls-5" d="M111.81,39a6.62,6.62,0,0,0-4.89-1.91l-28,0-9,39.3h0v.06h.42A10.06,10.06,0,0,0,76.76,74a10.53,10.53,0,0,0,3.78-5.9l1.62-7h19.39a9.16,9.16,0,0,0,6.28-1.85,12.17,12.17,0,0,0,3.92-6.43l1.7-7.28a8.85,8.85,0,0,0,.21-1.79A6.29,6.29,0,0,0,111.81,39Zm-8.74,13.38-18.89,0,1.53-6.58,18.89,0Z"/><path class="cls-5" d="M168.78,39a6.52,6.52,0,0,0-4.87-1.91H134.36l-.06.28a9.25,9.25,0,0,0-.21,1.73,6.42,6.42,0,0,0,1.82,4.8,6.55,6.55,0,0,0,4.88,1.91H147l-7,30.59h.42A10.06,10.06,0,0,0,146.82,74a10.42,10.42,0,0,0,3.78-5.9l5.16-22.24h14.58l.06-.28a8.84,8.84,0,0,0,.2-1.79A6.28,6.28,0,0,0,168.78,39Z"/><path class="cls-4" d="M174.53,89.29a6.77,6.77,0,1,1,6.76,6.78,6.77,6.77,0,0,1-6.76-6.78m11.89,0a5.13,5.13,0,1,0-5.13,5.47,5.2,5.2,0,0,0,5.13-5.47m-7.73-3.86h2.85c1.84,0,2.84.64,2.84,2.26a1.92,1.92,0,0,1-2,2.06l2.06,3.35H183l-2-3.3h-.86v3.3h-1.43Zm1.43,3.29h1.26c.83,0,1.57-.12,1.57-1.15s-.82-1-1.56-1h-1.27Z"/><path class="cls-1" d="M203.08,63.17V37h4.09v26.2Z"/><path class="cls-1" d="M222.47,63.17v-13q0-3.69-4.09-3.69a9.64,9.64,0,0,0-3.58.58V63.17h-3.94V44.64a19.75,19.75,0,0,1,7.49-1.37q8.1,0,8.1,6.51V63.17Z"/><path class="cls-1" d="M239,37.88q-3.87,0-3.87,3.36v2.43h4.05v3h-4.05V63.17h-3.87V46.64H228.7v-3h2.57V41.24a6.15,6.15,0,0,1,2-5,7.46,7.46,0,0,1,5-1.6,9.41,9.41,0,0,1,1.23.08v3.11Z"/><path class="cls-1" d="M255.69,60.64a8.39,8.39,0,0,1-12.74,0,11.23,11.23,0,0,1-2.2-7.24,11.2,11.2,0,0,1,2.2-7.23,8.45,8.45,0,0,1,12.74,0,11.2,11.2,0,0,1,2.21,7.23A11.23,11.23,0,0,1,255.69,60.64ZM252.76,48.3a4.09,4.09,0,0,0-6.88,0,9.52,9.52,0,0,0-1.15,5.07,9.5,9.5,0,0,0,1.15,5.06,4,4,0,0,0,6.88,0,9.5,9.5,0,0,0,1.16-5.06A9.51,9.51,0,0,0,252.76,48.3Z"/><path class="cls-1" d="M269.62,46.71a8,8,0,0,0-2-.22,7.87,7.87,0,0,0-3.07.51V63.17h-3.95V44.64a19.43,19.43,0,0,1,7.56-1.37,12.15,12.15,0,0,1,2.21.15Z"/><path class="cls-1" d="M294.88,63.17V50a3.39,3.39,0,0,0-1-2.6,4,4,0,0,0-2.72-.91,4.68,4.68,0,0,0-3.58,1.31V63.17h-4V49.6a2.8,2.8,0,0,0-1.09-2.31,4.6,4.6,0,0,0-2.89-.84,8.49,8.49,0,0,0-3.33.58V63.17h-3.94V44.64a18.26,18.26,0,0,1,7-1.37c2.79,0,4.87.7,6.22,2.1a9.64,9.64,0,0,1,6.48-2.1A7,7,0,0,1,297,45a6,6,0,0,1,1.81,4.6v13.6Z"/><path class="cls-1" d="M316.77,62.19a14.93,14.93,0,0,1-7,1.38q-8.43,0-8.43-6.12a5.43,5.43,0,0,1,3.62-5.28A24.73,24.73,0,0,1,313,50.72V49.49c0-2.22-1.38-3.32-4.13-3.32a12.44,12.44,0,0,0-5.39,1.19l-1-2.72a16.72,16.72,0,0,1,6.8-1.37q7.49,0,7.49,6.62ZM313,53.37a21.2,21.2,0,0,0-5.47.79,3.28,3.28,0,0,0-2.49,3.22q0,3.33,4.59,3.33A8.39,8.39,0,0,0,313,60.2Z"/><path class="cls-1" d="M329.36,63a5.89,5.89,0,0,1-2.46.44q-5.36,0-5.35-5.72V46.64h-2.64v-3h2.64V39.14L325.42,38v5.72h3.94v3h-3.94V57.49c0,1.64.87,2.46,2.6,2.46a3.27,3.27,0,0,0,1.34-.25Z"/><path class="cls-1" d="M335.48,39.47a2.37,2.37,0,0,1-1.67.65,2.34,2.34,0,0,1-1.66-.65,2.18,2.18,0,0,1,0-3.18,2.3,2.3,0,0,1,1.66-.65,2.32,2.32,0,0,1,1.67.65,2.18,2.18,0,0,1,0,3.18Zm-3.66,23.7V43.67h4v19.5Z"/><path class="cls-1" d="M353.57,60.64a8.39,8.39,0,0,1-12.74,0,11.23,11.23,0,0,1-2.2-7.24,11.2,11.2,0,0,1,2.2-7.23,8.45,8.45,0,0,1,12.74,0,11.2,11.2,0,0,1,2.21,7.23A11.23,11.23,0,0,1,353.57,60.64ZM350.64,48.3a4.09,4.09,0,0,0-6.88,0,9.52,9.52,0,0,0-1.15,5.07,9.5,9.5,0,0,0,1.15,5.06,4,4,0,0,0,6.88,0,9.5,9.5,0,0,0,1.16-5.06A9.51,9.51,0,0,0,350.64,48.3Z"/><path class="cls-1" d="M370.11,63.17v-13c0-2.46-1.37-3.69-4.09-3.69a9.7,9.7,0,0,0-3.59.58V63.17h-3.94V44.64A19.75,19.75,0,0,1,366,43.27q8.1,0,8.11,6.51V63.17Z"/></g></g></svg>