<svg xmlns="http://www.w3.org/2000/svg" viewBox="0 0 188.07 113.54"><defs><style>.cls-1{fill:#16b14b;}.cls-2{fill:#f27227;}.cls-3{fill:#1169b0;}.cls-4{fill:#fff;}</style></defs><g id="Layer_2" data-name="Layer 2"><g id="Layer_1-2" data-name="Layer 1"><g id="Layer_2-2" data-name="Layer 2"><g id="Layer_1-2-2" data-name="Layer 1-2"><path class="cls-1" d="M151.44,17.47a23.81,23.81,0,0,0-22.07,15.82c-.18.47-.79,2.43-.79,2.43L114.64,96.07h32c11,0,20.31-7.93,22.94-18.62h0l13.85-60Z"/><path class="cls-2" d="M98.14,0A23.55,23.55,0,0,0,75.56,17.16c-.21.74-.38,1.5-.52,2.27L53.31,113.54h32A23.54,23.54,0,0,0,108.06,95.7h0L130.16,0Z"/><path class="cls-3" d="M36.79,17.47c-10.37,0-19.24,7.06-22.43,16.84-.07.22-.14.44-.2.66l-.54,2.1L0,96.07H32.79c9.79,0,18.2-6.5,21.47-15.6l1.3-5.62L68.8,17.47Z"/><path class="cls-4" d="M30.81,37.07h-.5a10,10,0,0,0-6.41,2.42,10.69,10.69,0,0,0-3.58,5h0L13,76.43h.42A10,10,0,0,0,19.84,74a10.49,10.49,0,0,0,3.78-5.9l1.61-6.92h14.6a10.22,10.22,0,0,0,6.48-2.46,10.46,10.46,0,0,0,3.77-5.86l.09-.42H27.26l1.52-6.58H48.63A10,10,0,0,0,55,43.39a10.76,10.76,0,0,0,3.74-5.87l.1-.42Z"/><path class="cls-4" d="M111.81,39a6.66,6.66,0,0,0-4.89-1.91h-28l-9,39.3h0v.06h.42A10.11,10.11,0,0,0,76.76,74a10.52,10.52,0,0,0,3.78-5.9l1.62-7h19.39a9.2,9.2,0,0,0,6.28-1.86,12.16,12.16,0,0,0,3.92-6.43l1.7-7.28a9,9,0,0,0,.21-1.79A6.27,6.27,0,0,0,111.81,39Zm-8.74,13.38H84.18l1.53-6.58H104.6Z"/><path class="cls-4" d="M168.78,39a6.52,6.52,0,0,0-4.87-1.91H134.36l-.06.28a10.09,10.09,0,0,0-.21,1.73,6.42,6.42,0,0,0,1.82,4.81,6.58,6.58,0,0,0,4.88,1.9H147L140,76.4h.42a10.08,10.08,0,0,0,6.4-2.4,10.44,10.44,0,0,0,3.78-5.9l5.16-22.24h14.58l.06-.28a8.91,8.91,0,0,0,.2-1.78A6.31,6.31,0,0,0,168.78,39Z"/><path class="cls-3" d="M174.53,89.29a6.77,6.77,0,1,1,6.76,6.78,6.77,6.77,0,0,1-6.76-6.78h0m11.89,0a5.13,5.13,0,1,0-5.13,5.47,5.2,5.2,0,0,0,5.14-5.26c0-.07,0-.14,0-.21m-7.73-3.86h2.85c1.84,0,2.84.64,2.84,2.26a1.92,1.92,0,0,1-1.77,2.06h-.23l2.06,3.35H183l-2-3.3h-.86v3.3h-1.43Zm1.43,3.29h1.26c.83,0,1.57-.12,1.57-1.15s-.82-1-1.56-1h-1.27Z"/></g></g></g></g></svg>